<?xml version="1.0" encoding="utf-8"?>
<!-- Generator: Adobe Illustrator 25.2.0, SVG Export Plug-In . SVG Version: 6.00 Build 0)  -->
<svg version="1.1" id="type" xmlns="http://www.w3.org/2000/svg" xmlns:xlink="http://www.w3.org/1999/xlink" x="0px" y="0px"
	 viewBox="0 0 135 135" width="135px" height="135px" enable-background="new 0 0 135 135" xml:space="preserve">
<circle fill="#FFFFFF" cx="67.5" cy="67.5" r="67.5"/>
<path fill="#91B5C7" d="M71.8,83.2l-5.7,22.9c-0.1,0.3-0.5,0.4-0.8,0.3c-0.2-0.1-0.4-0.3-0.4-0.6l-1.3-23.5l-11.9,7.3
	c-0.3,0.1-0.6,0-0.8-0.3c-0.1-0.2-0.1-0.5,0.1-0.7l5.8-9.1l-28.1,2.9c-0.3,0-0.6-0.2-0.7-0.5c0-0.3,0.1-0.5,0.4-0.6L50,72.7l-20-3.3
	c-0.3,0-0.5-0.3-0.5-0.7c0-0.3,0.3-0.5,0.7-0.5l26.1-1.6l-13.4-26c-0.2-0.3-0.1-0.6,0.2-0.8c0.2-0.2,0.6-0.2,0.8,0.1l21.3,20.8
	l5.6-35.6c0.1-0.3,0.4-0.5,0.7-0.5c0.3,0,0.5,0.3,0.5,0.5L73.1,61l7.3-7.8c0.2-0.2,0.5-0.2,0.7-0.1c0.2,0.1,0.4,0.4,0.3,0.7L81.3,62
	l21.7-9.9c0.3-0.2,0.6-0.1,0.8,0.2c0.2,0.3,0.1,0.6-0.2,0.8l0,0l-22,17.6L97,79.1c0.3,0.2,0.4,0.5,0.2,0.8c-0.1,0.2-0.3,0.3-0.6,0.3
	l-15.9-0.4l16.5,24.5c20-16.3,23-45.8,6.7-65.8s-45.8-23-65.8-6.7s-23,45.8-6.7,65.8c15.3,18.8,42.4,22.7,62.4,9.1L71.8,83.2z"/>
<path d="M52.9,127.3l0.2-0.8l3.7-3c0.3-0.2,0.5-0.6,0.6-1c0.2-0.6-0.1-1.2-0.7-1.4c-0.1,0-0.2,0-0.3,0c-0.6-0.2-1.3,0.2-1.5,0.8
	c0,0.1,0,0.2,0,0.2L54,122c0.2-1.1,1.2-1.9,2.4-1.7c0.1,0,0.1,0,0.2,0c0.7,0.1,1.3,0.6,1.6,1.2c0.2,0.4,0.2,0.8,0.1,1.2
	c-0.1,0.6-0.5,1.1-0.9,1.4l-3.1,2.6l3.2,0.7l-0.2,0.8L52.9,127.3z"/>
<path d="M64.3,128.4c-1,0.8-2.4,0.7-3.2-0.2c-0.7-0.8-0.7-1.8-0.6-3.3s0.3-2.5,1.1-3.2c1-0.8,2.4-0.7,3.2,0.2
	c0.7,0.8,0.7,1.9,0.6,3.3S65.1,127.7,64.3,128.4z M64.1,122.4c-0.5-0.5-1.3-0.6-1.8-0.1c-0.7,0.6-0.7,1.6-0.8,2.6s-0.2,2.1,0.4,2.7
	c0.2,0.2,0.6,0.4,0.9,0.4c0.3,0,0.7-0.1,0.9-0.3c0.7-0.6,0.7-1.6,0.8-2.6S64.7,123.1,64.1,122.4L64.1,122.4z"/>
<path d="M68.3,129v-0.8l2.8-3.8c0.2-0.3,0.4-0.7,0.4-1.1c0-0.6-0.4-1.1-1-1.2c-0.1,0-0.2,0-0.2,0c-0.7,0-1.2,0.5-1.2,1.1
	c0,0.1,0,0.2,0,0.3h-0.9c-0.1-1.1,0.7-2.1,1.8-2.3c0.1,0,0.2,0,0.2,0c0.7-0.1,1.4,0.2,1.9,0.8c0.3,0.3,0.4,0.7,0.4,1.1
	c0,0.6-0.2,1.2-0.6,1.6l-2.4,3.3l3.3-0.2v0.9L68.3,129z"/>
<path d="M79.3,127.4c-0.3,0.5-0.9,0.8-1.5,0.9c-0.6,0.1-1.2,0-1.7-0.3c-0.9-0.6-1.2-1.6-1.4-3s-0.3-2.5,0.3-3.3
	c0.8-1,2.1-1.2,3.2-0.5c0.9,0.6,1.2,1.6,1.4,3S79.9,126.5,79.3,127.4z M77.6,121.7c-0.3-0.2-0.7-0.3-1-0.2c-0.3,0-0.6,0.2-0.8,0.5
	c-0.5,0.7-0.3,1.8-0.2,2.7s0.3,2.1,1,2.6c0.3,0.2,0.7,0.3,1,0.2c0.3-0.1,0.6-0.2,0.8-0.5c0.5-0.7,0.3-1.8,0.2-2.8
	S78.4,122.1,77.6,121.7z"/>
<path d="M30.5,106.6l-0.5,0.8c0.8-0.2,1.6,0,2.3,0.6c0.6,0.5,0.9,1.2,1,1.9c0,1.1-0.5,2.2-1.3,3c-0.7,0.9-1.7,1.5-2.8,1.7
	c-0.8,0-1.5-0.2-2.1-0.7c-0.6-0.5-1-1.2-1.1-2c0-0.6,0.1-1.1,0.5-1.6l0.8,0.7c-0.2,0.3-0.3,0.6-0.3,0.9c0,0.6,0.3,1.1,0.7,1.4
	c0.4,0.3,0.9,0.5,1.4,0.5c0.9-0.2,1.6-0.7,2.1-1.4c0.7-0.6,1.1-1.4,1.1-2.3c0-0.5-0.3-1-0.7-1.3c-0.4-0.4-0.9-0.5-1.4-0.5
	c-0.7,0.1-1.3,0.4-1.8,1l1.5,1.3l-0.6,0.7l-2.2-1.9l2.7-3.1L30.5,106.6z"/>
<path d="M26.5,102.1c1,1,1,2.7,0,3.7c-0.1,0.1-0.3,0.2-0.4,0.3l-3.7,3.1l-0.6-0.7l3.7-3.1c0.9-0.8,1.2-1.7,0.4-2.7s-1.8-0.9-2.7-0.1
	l-3.7,3.1l-0.6-0.7l3.7-3.1c1-1.1,2.6-1.1,3.7-0.2C26.3,101.8,26.4,102,26.5,102.1z"/>
<path d="M23,97.7l-6.3,4.2l-0.5-0.8l6.3-4.2L23,97.7z"/>
<path d="M18,90.6c0.7,0.3,1.3,0.8,1.6,1.4l1.2,2.3l-6.8,3.5l-1.2-2.3c-0.3-0.6-0.4-1.4-0.2-2.1c0.4-1,1.2-1.8,2.2-2.2
	C15.8,90.5,16.9,90.3,18,90.6z M13.5,93.6c-0.1,0.5-0.1,1,0.2,1.4l0.8,1.5l5.2-2.7l-0.8-1.5c-0.2-0.5-0.6-0.8-1.1-1
	c-0.8-0.1-1.7,0-2.4,0.5C14.5,92.2,13.8,92.8,13.5,93.6L13.5,93.6z"/>
<path d="M17.4,87.1l-7.2,2.4l-1.6-4.8l0.8-0.3l1.3,3.9l2.2-0.8l-1.2-3.4l0.9-0.3l1.2,3.4l2.5-0.8l-1.3-3.9l0.8-0.3L17.4,87.1z"/>
<path d="M13.7,75.7c1.2,1.1,1.6,2.8,0.9,4.2c-0.4,0.6-1,1-1.6,1.1l-0.2-1c0.4-0.1,0.8-0.4,1.1-0.8c0.3-0.4,0.3-1,0.2-1.5
	c-0.1-0.5-0.3-1-0.7-1.3c-0.3-0.2-0.6-0.3-0.9-0.2c-0.6,0.1-1,0.6-1,1.5c0,0.4,0,0.8,0.1,1.2c0.2,1.1-0.5,2.1-1.6,2.4c0,0,0,0,0,0
	c-0.6,0.1-1.1,0-1.6-0.4c-0.6-0.4-1-1.1-1.1-1.8c-0.2-0.7,0-1.4,0.3-2.1c0.3-0.5,0.9-0.9,1.5-1l0.2,1c-0.3,0.1-0.6,0.3-0.9,0.6
	c-0.5,0.9-0.3,2,0.5,2.6c0.3,0.2,0.6,0.2,0.9,0.2c0.6-0.1,1-0.7,0.8-1.3c0-0.4,0-0.8-0.1-1.3c-0.2-1.2,0.6-2.2,1.7-2.5
	C12.7,75.3,13.2,75.4,13.7,75.7z"/>
<path d="M7.1,71l6.7-0.4l0.1,1L7.2,72l0.2,2.3l-0.9,0.1l-0.4-5.5L7,68.7L7.1,71z"/>
<path d="M13.9,62.7l-1.8,0.5l-0.1,3.3l1.8,0.7v1l-7.5-3l0.1-1.1l7.7-2.4L13.9,62.7z M7.2,64.7l3.8,1.5l0.1-2.7L7.2,64.7z"/>
<path d="M15.1,55.4l-3.4,0.8l-0.4,2.1l3.1,0.6l-0.2,0.9l-7.5-1.4l0.6-2.9c0.1-0.7,0.4-1.3,1-1.8c0.5-0.3,1.1-0.4,1.6-0.3
	c0.6,0.1,1,0.4,1.4,0.8c0.2,0.3,0.3,0.6,0.4,1l3.6-0.9L15.1,55.4z M8.2,55.6l-0.4,2l2.6,0.5l0.4-2c0.2-0.9-0.1-1.6-1-1.8
	S8.3,54.8,8.2,55.6z"/>
<path d="M15.5,43.2c0.2,0.7,0.2,1.4-0.1,2l-0.7,1.7l2.7,1.1L17,48.9L10,46l1.1-2.6c0.2-0.7,0.7-1.2,1.4-1.5c0.6-0.2,1.2-0.2,1.7,0.1
	C14.8,42.2,15.2,42.6,15.5,43.2z M11.8,43.7l-0.7,1.7l2.7,1.1l0.7-1.7c0.4-0.6,0.2-1.4-0.4-1.8c-0.1-0.1-0.2-0.1-0.4-0.2
	c-0.7-0.3-1.5-0.1-1.8,0.6C11.9,43.5,11.9,43.6,11.8,43.7z"/>
<path d="M20,42.2l-6.6-3.8l0.5-0.8l5.8,3.3l1.8-3.2l0.8,0.5L20,42.2z"/>
<path d="M26.2,33l-1.8-0.6l-2,2.6l1,1.6l-0.6,0.8l-4.4-6.8l0.7-0.9l7.7,2.5L26.2,33z M19.6,30.8l2.3,3.5l1.6-2.1L19.6,30.8z"/>
<path d="M24.8,24.7l4.8,4.7l-0.7,0.7l-4.8-4.7L22.5,27l-0.6-0.6l3.9-3.9l0.6,0.6L24.8,24.7z"/>
<path d="M32.7,26.5l-4.9-5.8l0.8-0.6l4.9,5.8L32.7,26.5z"/>
<path d="M39.7,21.4l-6.5-3.1l3.3,5.1L35.8,24l-4.1-6.4l0.9-0.6l6.5,3.1L35.7,15l0.8-0.5l4.2,6.4L39.7,21.4z"/>
<path d="M45.7,18.5c-1.3,0.7-2.8,0.2-3.5-1C42,17.3,42,17.2,41.9,17l-2-4.4l0.9-0.4l2,4.4c0.5,1.1,1.3,1.6,2.5,1.1s1.3-1.5,0.8-2.6
	l-2-4.4l0.9-0.4l2,4.4c0.7,1.2,0.3,2.8-0.9,3.6C46,18.4,45.8,18.4,45.7,18.5z"/>
<path d="M56.6,14.8L55,8.6l-0.7,6.7l-0.7,0.2l-3.8-5.6l1.6,6.3l-0.9,0.2L48.6,9l1.3-0.3l3.8,5.4l0.7-6.5l1.3-0.3l1.9,7.3L56.6,14.8z
	"/>
<path d="M68.7,13.1c-1.2,1-3,1.1-4.3,0.1c-0.5-0.5-0.8-1.1-0.8-1.8h1c0,0.5,0.2,0.9,0.6,1.2c0.4,0.3,0.9,0.5,1.5,0.4
	c0.5,0,1-0.1,1.4-0.5c0.3-0.2,0.4-0.6,0.4-0.9c0-0.6-0.4-1.1-1.3-1.2l-1.2-0.2c-1.1-0.1-2-0.8-2.1-2c0-0.6,0.2-1.1,0.6-1.5
	c1.1-1,2.8-1.1,4-0.1c0.5,0.4,0.7,1,0.8,1.6h-1c0-0.3-0.2-0.7-0.4-0.9c-0.8-0.7-2-0.7-2.7,0.1c-0.2,0.2-0.3,0.5-0.3,0.8
	c0,0.7,0.6,1,1.2,1.1l1.3,0.2c1.2,0,2.1,0.9,2.2,2.1C69.3,12.2,69.1,12.7,68.7,13.1z"/>
<path d="M71.5,13.8l0.9-7.5l5,0.6l-0.1,0.9l-4.1-0.5l-0.3,2.3l3.6,0.4l-0.1,0.9l-3.6-0.4l-0.3,2.6l4.1,0.5l-0.1,0.9L71.5,13.8z"/>
<path d="M83.2,16L83,14.1l-3.2-0.8l-1,1.6l-0.9-0.2L82.4,8l1.1,0.3l0.7,8L83.2,16z M82.6,9l-2.3,3.5l2.6,0.7L82.6,9z"/>
<path d="M85.7,16.9l2.8-7.1l0.9,0.4L87,16.4l3.4,1.4l-0.3,0.8L85.7,16.9z"/>
<path d="M97.8,22.2c-0.7,0.2-1.5,0-2.2-0.4c-0.7-0.4-1.1-1-1.3-1.8c-0.2-1.1,0.1-2.3,0.8-3.2c0.5-1,1.4-1.8,2.5-2.1
	c1.5-0.3,3.1,0.6,3.5,2.1c0.2,1.1-0.1,2.3-0.8,3.2C99.8,21.1,98.9,21.9,97.8,22.2z M100.2,17.1c-0.1-0.5-0.4-0.9-0.9-1.2
	c-0.4-0.3-1-0.4-1.5-0.2c-0.8,0.3-1.5,1-1.8,1.8c-0.5,0.7-0.8,1.6-0.7,2.4c0.3,1,1.3,1.7,2.3,1.5c0.8-0.3,1.5-1,1.8-1.8
	C100,18.9,100.3,18,100.2,17.1z"/>
<path d="M105,20.1l-1.5,1.9l2.7,2.2l-0.6,0.7l-2.7-2.2l-2.1,2.6l-0.7-0.6l4.8-5.9l3.8,3.1l-0.6,0.7L105,20.1z"/>
<path d="M113.8,28.5l-5.1,4.4l-0.6-0.7l5.1-4.4l-1.5-1.7l0.7-0.6l3.6,4.2l-0.7,0.6L113.8,28.5z"/>
<path d="M113.9,40.2l1.9-2.9l-1.1-1.8l-2.6,1.7l-0.5-0.8l6.4-4.1l1.6,2.5c0.4,0.6,0.6,1.3,0.5,2c-0.1,0.6-0.5,1-1,1.3
	c-0.8,0.6-1.8,0.5-2.5-0.2l-2,3.1L113.9,40.2z M118.7,35.3l-1.1-1.7l-2.2,1.5l1.1,1.7c0.5,0.8,1.1,1.1,2,0.6
	c0.6-0.4,0.8-1.2,0.4-1.8C118.8,35.5,118.8,35.4,118.7,35.3z"/>
<path d="M117.4,47.3l1.4-1.3l-1.4-3l-1.9,0.2l-0.4-0.9l8-0.7l0.5,1l-5.8,5.6L117.4,47.3z M122.5,42.5l-4.1,0.4l1.1,2.5L122.5,42.5z"
	/>
<path d="M119.7,54.4l4.8-5.3l-5.9,1.7l-0.3-0.9l7.3-2.1l0.3,1l-4.9,5.3l5.9-1.7l0.3,0.9l-7.3,2.1L119.7,54.4z"/>
<path d="M121.7,62.9c-1.2-1.1-1.4-2.9-0.6-4.3c0.4-0.6,1-0.9,1.7-1l0.1,1c-0.4,0.1-0.8,0.3-1.1,0.7c-0.3,0.4-0.4,1-0.3,1.5
	c0,0.5,0.2,1,0.6,1.3c0.3,0.2,0.6,0.3,0.9,0.3c0.6-0.1,1-0.5,1.1-1.4c0-0.4,0-0.8,0-1.2c-0.2-1.1,0.6-2.2,1.8-2.3c0,0,0,0,0.1,0
	c0.6-0.1,1.1,0.1,1.6,0.5c0.6,0.5,0.9,1.1,1,1.9c0.1,0.7-0.1,1.4-0.5,2c-0.4,0.5-0.9,0.8-1.5,0.9l-0.1-1c0.3-0.1,0.7-0.2,0.9-0.5
	c0.3-0.4,0.4-0.9,0.3-1.4c0-0.5-0.3-1-0.7-1.3c-0.3-0.2-0.6-0.2-0.9-0.2c-0.6,0.1-1,0.7-0.9,1.3c0,0.4,0,0.8,0,1.3
	c0.1,1.2-0.7,2.2-1.9,2.4C122.8,63.4,122.2,63.2,121.7,62.9z"/>
<path d="M124.8,71.1c-0.4-0.5-0.7-1.2-0.6-1.9v-1.9l-2.9-0.1v-1l7.6,0.1v2.8c0,0.7-0.2,1.4-0.7,1.9c-0.4,0.4-1,0.6-1.6,0.6
	C125.9,71.7,125.3,71.5,124.8,71.1z M128,69.3v-1.8h-2.9v1.8c-0.1,0.7,0.3,1.4,1.1,1.5c0.1,0,0.3,0,0.4,0c0.7,0.1,1.4-0.5,1.5-1.2
	C128,69.5,128,69.4,128,69.3z"/>
<path d="M120.3,78l1.9-0.3l0.5-3.3l-1.7-0.9l0.1-1l7.1,3.8l-0.2,1.1l-7.9,1.6L120.3,78z M127.2,76.8l-3.7-1.9l-0.4,2.7L127.2,76.8z"
	/>
<path d="M118.3,85.3l3.4-0.4l0.6-2l-3-0.9l0.3-0.9l7.2,2.2l-0.9,2.8c-0.2,0.7-0.6,1.3-1.2,1.6c-0.5,0.3-1.1,0.3-1.6,0.1
	c-0.5-0.1-1-0.5-1.3-1c-0.2-0.3-0.2-0.7-0.2-1l-3.6,0.5L118.3,85.3z M125.2,85.9l0.6-1.9l-2.6-0.8l-0.6,1.9
	c-0.3,0.9-0.1,1.6,0.8,1.9S124.9,86.7,125.2,85.9z"/>
<path d="M116.9,88.8l6.8,3.3l-2.2,4.6l-0.8-0.4l1.8-3.7l-2.1-1l-1.6,3.3l-0.8-0.4l1.6-3.3l-2.4-1.2l-1.8,3.7l-0.8-0.4L116.9,88.8z"
	/>
<path d="M110.8,99.4l7.1,0.4l-5-3.5l0.5-0.8l6.2,4.3l-0.6,0.9l-7.2-0.4l5,3.5l-0.5,0.8l-6.2-4.3L110.8,99.4z"/>
<path d="M105.8,106.2c0-0.7,0.3-1.5,0.8-2c0.5-0.6,1.2-0.9,2-1c2.2,0.4,4,2,4.6,4.2c0,0.8-0.3,1.5-0.8,2.1c-0.5,0.6-1.2,0.9-2,0.9
	c-0.7,0-1.3-0.2-1.8-0.6l0.7-0.7c0.3,0.3,0.7,0.4,1.1,0.4c0.5,0,1-0.2,1.3-0.6c0.4-0.4,0.5-0.9,0.5-1.4c-0.2-0.9-0.7-1.6-1.4-2.1
	c-0.6-0.7-1.4-1.1-2.2-1.2c-0.5,0-1,0.2-1.4,0.6c-0.4,0.4-0.5,0.9-0.5,1.4c0.1,0.4,0.2,0.7,0.5,1l-0.7,0.7
	C106.1,107.4,105.9,106.8,105.8,106.2z"/>
<path d="M103.6,111.4l-2-2.4l0.7-0.6l2,2.4l4.8,1.8l-0.8,0.7l-3.8-1.5l0.8,4l-0.8,0.7L103.6,111.4z"/>
</svg>
